<svg xmlns="http://www.w3.org/2000/svg" width="128" height="128" fill="none"><circle cx="64" cy="64" r="64" fill="url(#a)"/><path fill="#000" d="M52.607 57c-.09-1.136-.517-2.023-1.278-2.66-.75-.636-1.892-.954-3.426-.954-.978 0-1.779.12-2.404.358-.613.228-1.068.54-1.363.938a2.317 2.317 0 0 0-.46 1.363c-.023.42.05.802.221 1.142.182.33.466.631.852.904.387.261.881.5 1.483.716.602.216 1.318.409 2.148.58l2.864.613c1.931.41 3.585.949 4.96 1.62 1.375.67 2.5 1.46 3.375 2.369a8.454 8.454 0 0 1 1.926 3.034c.42 1.125.636 2.352.648 3.681-.012 2.296-.585 4.24-1.722 5.83-1.136 1.591-2.761 2.801-4.875 3.63-2.102.83-4.63 1.245-7.585 1.245-3.034 0-5.682-.449-7.943-1.347-2.25-.897-4-2.278-5.25-4.141-1.239-1.876-1.864-4.273-1.875-7.194h9c.056 1.069.324 1.966.8 2.694.478.727 1.149 1.278 2.012 1.653.875.375 1.915.562 3.12.562 1.01 0 1.858-.125 2.54-.375.681-.25 1.198-.596 1.55-1.04.353-.443.535-.948.546-1.517-.011-.533-.188-1-.528-1.397-.33-.41-.875-.773-1.637-1.091-.761-.33-1.79-.636-3.085-.92l-3.477-.75c-3.091-.671-5.529-1.79-7.313-3.359-1.773-1.579-2.653-3.732-2.642-6.46-.011-2.216.58-4.153 1.773-5.812 1.204-1.67 2.87-2.972 4.994-3.904 2.137-.931 4.585-1.397 7.347-1.397 2.818 0 5.255.471 7.312 1.414 2.057.944 3.642 2.273 4.756 3.989 1.125 1.705 1.693 3.699 1.704 5.983h-9.068Zm12.196-3.273v-7.636h30.341v7.636h-10.5V81h-9.34V53.727h-10.5Z" style="mix-blend-mode:overlay"/><defs><linearGradient id="a" x1="0" x2="128" y1="0" y2="128" gradientUnits="userSpaceOnUse"><stop stop-color="#84FAB0"/><stop offset="1" stop-color="#8FD3F4"/></linearGradient></defs></svg>